<svg width="22" height="22" viewBox="0 0 22 22" fill="none" xmlns="http://www.w3.org/2000/svg">
<g clip-path="url(#clip0_298_12383)">
<path d="M16.0765 0.847656H5.92263C3.07955 0.847656 0.845703 3.0815 0.845703 5.92458V16.0784C0.845703 18.9215 3.07955 21.1553 5.92263 21.1553H16.0765C18.9195 21.1553 21.1534 18.9215 21.1534 16.0784V5.92458C21.1534 3.0815 18.9195 0.847656 16.0765 0.847656ZM19.1226 16.0784C19.1226 17.8046 17.8026 19.1246 16.0765 19.1246H5.92263C4.19647 19.1246 2.87647 17.8046 2.87647 16.0784V5.92458C2.87647 4.19843 4.19647 2.87843 5.92263 2.87843H16.0765C17.8026 2.87843 19.1226 4.19843 19.1226 5.92458V16.0784Z" fill="#282828"/>
<path d="M10.9968 5.92578C8.15377 5.92578 5.91992 8.15963 5.91992 11.0027C5.91992 13.8458 8.15377 16.0796 10.9968 16.0796C13.8399 16.0796 16.0738 13.8458 16.0738 11.0027C16.0738 8.15963 13.8399 5.92578 10.9968 5.92578ZM10.9968 14.0489C9.27069 14.0489 7.95069 12.7289 7.95069 11.0027C7.95069 9.27655 9.27069 7.95655 10.9968 7.95655C12.723 7.95655 14.043 9.27655 14.043 11.0027C14.043 12.7289 12.723 14.0489 10.9968 14.0489Z" fill="#282828"/>
<path d="M16.0798 6.93702C16.6406 6.93702 17.0952 6.48242 17.0952 5.92163C17.0952 5.36085 16.6406 4.90625 16.0798 4.90625C15.5191 4.90625 15.0645 5.36085 15.0645 5.92163C15.0645 6.48242 15.5191 6.93702 16.0798 6.93702Z" fill="#282828"/>
</g>
<defs>
<clipPath id="clip0_298_12383">
<rect width="22" height="22" fill="white"/>
</clipPath>
</defs>
</svg>
