<svg width="22" height="22" viewBox="0 0 22 22" fill="none" xmlns="http://www.w3.org/2000/svg">
<path d="M2.53906 8.06641H6.53555V19.2303H2.53906V8.06641Z" fill="#282828"/>
<path d="M15.0037 8.05078C12.1532 8.05078 11.6773 9.61441 11.6773 9.61441V8.06535H8.59375V19.2293H11.7113C11.7113 19.2293 11.7113 13.7032 11.7113 12.7902C11.7113 11.8773 12.2406 10.673 13.9208 10.673C15.6009 10.673 15.8 12.3143 15.7806 12.5134C15.7612 12.7125 15.7418 19.2244 15.7418 19.2244H19.0341C19.0341 19.2244 19.0341 12.8728 19.0341 11.4791C19.039 8.96856 17.354 8.05078 15.0037 8.05078Z" fill="#282828"/>
<path d="M4.53488 6.53069C5.63713 6.53069 6.53069 5.63713 6.53069 4.53488C6.53069 3.43262 5.63713 2.53906 4.53488 2.53906C3.43262 2.53906 2.53906 3.43262 2.53906 4.53488C2.53906 5.63713 3.43262 6.53069 4.53488 6.53069Z" fill="#282828"/>
</svg>
