<svg width="22" height="22" viewBox="0 0 22 22" fill="none" xmlns="http://www.w3.org/2000/svg">
<path d="M18.8151 13.9103C17.6753 13.9103 16.5563 13.732 15.4958 13.3816C14.9762 13.2043 14.3374 13.3669 14.0203 13.6927L11.9272 15.2727C9.49975 13.977 8.00451 12.4822 6.72645 10.073L8.26003 8.03445C8.65847 7.63655 8.80138 7.0553 8.63016 6.50993C8.27821 5.44391 8.09943 4.32539 8.09943 3.18519C8.09948 2.36151 7.42937 1.69141 6.60574 1.69141H3.1871C2.36346 1.69141 1.69336 2.36151 1.69336 3.18515C1.69336 12.6262 9.37405 20.3068 18.8151 20.3068C19.6387 20.3068 20.3088 19.6367 20.3088 18.8131V15.404C20.3087 14.5804 19.6386 13.9103 18.8151 13.9103Z" fill="#282828"/>
</svg>
