<svg width="22" height="22" viewBox="0 0 22 22" fill="none" xmlns="http://www.w3.org/2000/svg">
<path d="M5.80407 11.8828C5.82947 11.8194 6.08372 10.8424 6.10154 10.7762C5.7046 10.179 5.26365 8.22305 5.60187 6.63542C5.96675 4.30597 8.43533 3.16084 10.766 3.16084V3.1565C13.6841 3.15836 15.8684 4.78193 15.8707 7.57805C15.8725 9.76667 14.554 12.6596 12.3027 12.6596C12.3021 12.6596 12.3016 12.6596 12.301 12.6596C11.4975 12.6596 10.4802 12.2952 10.2134 11.9373C9.90552 11.5249 9.82991 11.0159 9.99259 10.4721C10.3912 9.1996 10.8996 7.67535 10.9589 6.65897C11.0139 5.69977 10.3333 5.07569 9.45062 5.07569C8.78642 5.07569 7.92374 5.46148 7.49379 6.54556C7.13868 7.4462 7.14627 8.38914 7.51703 9.42798C7.66159 9.83406 6.87622 12.4814 6.6246 13.3435C5.99944 15.485 5.14358 18.1945 5.32655 19.7034L5.50318 21.1553L6.39034 19.9927C7.61805 18.3856 8.88743 14.2283 9.22566 13.2168C10.2256 14.5117 12.3079 14.5489 12.5507 14.5489C15.5328 14.5489 18.9142 11.5878 18.8183 7.4665C18.7342 3.85232 16.0891 0.847656 11.3365 0.847656V0.852304C6.81579 0.852304 4.17724 3.26527 3.53132 6.31409C2.93977 9.14104 4.25533 11.2926 5.80407 11.8828Z" fill="#282828"/>
</svg>
