<svg width="22" height="22" viewBox="0 0 22 22" fill="none" xmlns="http://www.w3.org/2000/svg">
<path d="M20.0664 3.46484H1.93359C0.86741 3.46484 0 4.33225 0 5.39844V16.6039C0 17.6701 0.86741 18.5375 1.93359 18.5375H20.0664C21.1326 18.5375 22 17.6701 22 16.6039V5.39844C22 4.33225 21.1326 3.46484 20.0664 3.46484ZM19.8141 4.75391L19.556 4.96879L11.7672 11.4545C11.3226 11.8247 10.6773 11.8247 10.2328 11.4545L2.44402 4.96879L2.18595 4.75391H19.8141ZM1.28906 5.68452L7.6352 10.9689L1.28906 15.1925V5.68452ZM20.0664 17.2484H1.93359C1.62216 17.2484 1.36168 17.0264 1.302 16.7323L8.66877 11.8296L9.40801 12.4451C9.86923 12.8292 10.4347 13.0212 11 13.0212C11.5654 13.0212 12.1308 12.8292 12.5921 12.4451L13.3313 11.8296L20.698 16.7323C20.6383 17.0264 20.3778 17.2484 20.0664 17.2484ZM20.7109 15.1925L14.3648 10.969L20.7109 5.68452V15.1925Z" fill="#282828"/>
</svg>
